<mxfile host="Electron" agent="Mozilla/5.0 (Macintosh; Intel Mac OS X 10_15_7) AppleWebKit/537.36 (KHTML, like Gecko) draw.io/26.2.2 Chrome/134.0.6998.178 Electron/35.1.2 Safari/537.36" version="26.2.2">
  <diagram name="第 1 页" id="LHMKS1VvnvNhptzVCEv3">
    <mxGraphModel dx="1029" dy="1191" grid="1" gridSize="10" guides="1" tooltips="1" connect="1" arrows="1" fold="1" page="0" pageScale="1" pageWidth="827" pageHeight="1169" math="0" shadow="0">
      <root>
        <mxCell id="0" />
        <mxCell id="1" parent="0" />
        <mxCell id="cV0nnRCyaoGtx2Xki-Uy-22" value="" style="rounded=0;whiteSpace=wrap;html=1;fillColor=none;strokeColor=#000000;" vertex="1" parent="1">
          <mxGeometry x="160" y="80" width="320" height="680" as="geometry" />
        </mxCell>
        <mxCell id="cV0nnRCyaoGtx2Xki-Uy-15" style="edgeStyle=orthogonalEdgeStyle;rounded=0;orthogonalLoop=1;jettySize=auto;html=1;exitX=0.5;exitY=1;exitDx=0;exitDy=0;entryX=1.002;entryY=0.625;entryDx=0;entryDy=0;entryPerimeter=0;" edge="1" parent="1" source="cV0nnRCyaoGtx2Xki-Uy-6" target="cV0nnRCyaoGtx2Xki-Uy-3">
          <mxGeometry relative="1" as="geometry">
            <Array as="points">
              <mxPoint x="700" y="660" />
              <mxPoint x="520" y="660" />
              <mxPoint x="520" y="465" />
            </Array>
          </mxGeometry>
        </mxCell>
        <mxCell id="cV0nnRCyaoGtx2Xki-Uy-9" value="" style="rounded=0;whiteSpace=wrap;html=1;fillColor=none;strokeColor=#000000;" vertex="1" parent="1">
          <mxGeometry x="560" y="280" width="280" height="360" as="geometry" />
        </mxCell>
        <mxCell id="cV0nnRCyaoGtx2Xki-Uy-10" value="" style="edgeStyle=orthogonalEdgeStyle;rounded=0;orthogonalLoop=1;jettySize=auto;html=1;" edge="1" parent="1" source="cV0nnRCyaoGtx2Xki-Uy-1" target="cV0nnRCyaoGtx2Xki-Uy-2">
          <mxGeometry relative="1" as="geometry" />
        </mxCell>
        <mxCell id="cV0nnRCyaoGtx2Xki-Uy-1" value="&lt;font face=&quot;Comic Sans MS&quot;&gt;Qwen2_5_VisionPatchEmbed&lt;/font&gt;" style="rounded=1;whiteSpace=wrap;html=1;fillColor=#f5f5f5;fontColor=#333333;strokeColor=#666666;" vertex="1" parent="1">
          <mxGeometry x="200" y="120" width="240" height="40" as="geometry" />
        </mxCell>
        <mxCell id="cV0nnRCyaoGtx2Xki-Uy-11" style="edgeStyle=orthogonalEdgeStyle;rounded=0;orthogonalLoop=1;jettySize=auto;html=1;entryX=0.5;entryY=0;entryDx=0;entryDy=0;" edge="1" parent="1" source="cV0nnRCyaoGtx2Xki-Uy-2" target="cV0nnRCyaoGtx2Xki-Uy-3">
          <mxGeometry relative="1" as="geometry" />
        </mxCell>
        <mxCell id="cV0nnRCyaoGtx2Xki-Uy-2" value="&lt;font face=&quot;Comic Sans MS&quot;&gt;Qwen2_5_VisionRotaryEmbedding&lt;/font&gt;" style="rounded=1;whiteSpace=wrap;html=1;fillColor=#f5f5f5;strokeColor=#666666;fontColor=#333333;" vertex="1" parent="1">
          <mxGeometry x="200" y="200" width="240" height="40" as="geometry" />
        </mxCell>
        <mxCell id="cV0nnRCyaoGtx2Xki-Uy-12" style="edgeStyle=orthogonalEdgeStyle;rounded=0;orthogonalLoop=1;jettySize=auto;html=1;entryX=0.5;entryY=0;entryDx=0;entryDy=0;" edge="1" parent="1" source="cV0nnRCyaoGtx2Xki-Uy-3" target="cV0nnRCyaoGtx2Xki-Uy-4">
          <mxGeometry relative="1" as="geometry" />
        </mxCell>
        <mxCell id="cV0nnRCyaoGtx2Xki-Uy-13" style="edgeStyle=orthogonalEdgeStyle;rounded=0;orthogonalLoop=1;jettySize=auto;html=1;exitX=0.997;exitY=0.356;exitDx=0;exitDy=0;exitPerimeter=0;entryX=0.5;entryY=0;entryDx=0;entryDy=0;" edge="1" parent="1" source="cV0nnRCyaoGtx2Xki-Uy-3" target="cV0nnRCyaoGtx2Xki-Uy-7">
          <mxGeometry relative="1" as="geometry">
            <Array as="points">
              <mxPoint x="520" y="454" />
              <mxPoint x="520" y="260" />
              <mxPoint x="700" y="260" />
            </Array>
          </mxGeometry>
        </mxCell>
        <mxCell id="cV0nnRCyaoGtx2Xki-Uy-3" value="&lt;font face=&quot;Comic Sans MS&quot;&gt;Qwen2_5_VisionBlock * layer_num&lt;/font&gt;" style="rounded=1;whiteSpace=wrap;html=1;fillColor=#f5f5f5;strokeColor=#666666;fontColor=#333333;" vertex="1" parent="1">
          <mxGeometry x="200" y="440" width="240" height="40" as="geometry" />
        </mxCell>
        <mxCell id="cV0nnRCyaoGtx2Xki-Uy-21" style="edgeStyle=orthogonalEdgeStyle;rounded=0;orthogonalLoop=1;jettySize=auto;html=1;entryX=0.5;entryY=0;entryDx=0;entryDy=0;" edge="1" parent="1" source="cV0nnRCyaoGtx2Xki-Uy-4" target="cV0nnRCyaoGtx2Xki-Uy-20">
          <mxGeometry relative="1" as="geometry" />
        </mxCell>
        <mxCell id="cV0nnRCyaoGtx2Xki-Uy-4" value="&lt;font face=&quot;Comic Sans MS&quot;&gt;Qwen2_5_VisionPatchMerger&lt;/font&gt;" style="rounded=1;whiteSpace=wrap;html=1;fillColor=#f5f5f5;strokeColor=#666666;fontColor=#333333;" vertex="1" parent="1">
          <mxGeometry x="200" y="680" width="240" height="40" as="geometry" />
        </mxCell>
        <mxCell id="cV0nnRCyaoGtx2Xki-Uy-25" style="edgeStyle=orthogonalEdgeStyle;rounded=0;orthogonalLoop=1;jettySize=auto;html=1;" edge="1" parent="1" source="cV0nnRCyaoGtx2Xki-Uy-5" target="cV0nnRCyaoGtx2Xki-Uy-8">
          <mxGeometry relative="1" as="geometry" />
        </mxCell>
        <mxCell id="cV0nnRCyaoGtx2Xki-Uy-5" value="&lt;font face=&quot;Comic Sans MS&quot;&gt;Qwen2_5_VisionAttention&lt;/font&gt;" style="rounded=1;whiteSpace=wrap;html=1;fillColor=#f5f5f5;strokeColor=#666666;fontColor=#333333;" vertex="1" parent="1">
          <mxGeometry x="600" y="400" width="200" height="40" as="geometry" />
        </mxCell>
        <mxCell id="cV0nnRCyaoGtx2Xki-Uy-6" value="&lt;font face=&quot;Comic Sans MS&quot;&gt;Qwen2_5_VisionMLP&lt;/font&gt;" style="rounded=1;whiteSpace=wrap;html=1;fillColor=#f5f5f5;strokeColor=#666666;fontColor=#333333;" vertex="1" parent="1">
          <mxGeometry x="600" y="560" width="200" height="40" as="geometry" />
        </mxCell>
        <mxCell id="cV0nnRCyaoGtx2Xki-Uy-24" style="edgeStyle=orthogonalEdgeStyle;rounded=0;orthogonalLoop=1;jettySize=auto;html=1;entryX=0.5;entryY=0;entryDx=0;entryDy=0;" edge="1" parent="1" source="cV0nnRCyaoGtx2Xki-Uy-7" target="cV0nnRCyaoGtx2Xki-Uy-5">
          <mxGeometry relative="1" as="geometry" />
        </mxCell>
        <mxCell id="cV0nnRCyaoGtx2Xki-Uy-7" value="&lt;font face=&quot;Comic Sans MS&quot;&gt;RMSNorm&lt;/font&gt;" style="rounded=1;whiteSpace=wrap;html=1;fillColor=#f5f5f5;strokeColor=#666666;fontColor=#333333;" vertex="1" parent="1">
          <mxGeometry x="600" y="320" width="200" height="40" as="geometry" />
        </mxCell>
        <mxCell id="cV0nnRCyaoGtx2Xki-Uy-26" style="edgeStyle=orthogonalEdgeStyle;rounded=0;orthogonalLoop=1;jettySize=auto;html=1;entryX=0.5;entryY=0;entryDx=0;entryDy=0;" edge="1" parent="1" source="cV0nnRCyaoGtx2Xki-Uy-8" target="cV0nnRCyaoGtx2Xki-Uy-6">
          <mxGeometry relative="1" as="geometry" />
        </mxCell>
        <mxCell id="cV0nnRCyaoGtx2Xki-Uy-8" value="&lt;font face=&quot;Comic Sans MS&quot;&gt;RMSNorm&lt;/font&gt;" style="rounded=1;whiteSpace=wrap;html=1;fillColor=#f5f5f5;strokeColor=#666666;fontColor=#333333;" vertex="1" parent="1">
          <mxGeometry x="600" y="480" width="200" height="40" as="geometry" />
        </mxCell>
        <mxCell id="cV0nnRCyaoGtx2Xki-Uy-19" style="edgeStyle=orthogonalEdgeStyle;rounded=0;orthogonalLoop=1;jettySize=auto;html=1;entryX=0.5;entryY=0;entryDx=0;entryDy=0;" edge="1" parent="1" source="cV0nnRCyaoGtx2Xki-Uy-16" target="cV0nnRCyaoGtx2Xki-Uy-1">
          <mxGeometry relative="1" as="geometry" />
        </mxCell>
        <mxCell id="cV0nnRCyaoGtx2Xki-Uy-16" value="&lt;font face=&quot;Comic Sans MS&quot;&gt;X&lt;/font&gt;" style="ellipse;whiteSpace=wrap;html=1;aspect=fixed;fillColor=#f5f5f5;fontColor=#333333;strokeColor=#666666;" vertex="1" parent="1">
          <mxGeometry x="300" y="-40" width="40" height="40" as="geometry" />
        </mxCell>
        <mxCell id="cV0nnRCyaoGtx2Xki-Uy-20" value="&lt;font face=&quot;Comic Sans MS&quot;&gt;Y&lt;/font&gt;" style="ellipse;whiteSpace=wrap;html=1;aspect=fixed;fillColor=#f5f5f5;fontColor=#333333;strokeColor=#666666;" vertex="1" parent="1">
          <mxGeometry x="300" y="840" width="40" height="40" as="geometry" />
        </mxCell>
        <mxCell id="cV0nnRCyaoGtx2Xki-Uy-23" value="&lt;font style=&quot;font-size: 20px; color: rgb(255, 0, 0);&quot; face=&quot;Comic Sans MS&quot;&gt;Qwen2_5_VisionTransformer&lt;/font&gt;" style="text;html=1;align=center;verticalAlign=middle;resizable=0;points=[];autosize=1;strokeColor=none;fillColor=none;" vertex="1" parent="1">
          <mxGeometry x="170" y="30" width="300" height="40" as="geometry" />
        </mxCell>
        <mxCell id="cV0nnRCyaoGtx2Xki-Uy-27" style="edgeStyle=orthogonalEdgeStyle;rounded=0;orthogonalLoop=1;jettySize=auto;html=1;" edge="1" parent="1">
          <mxGeometry relative="1" as="geometry">
            <mxPoint x="700" y="300" as="sourcePoint" />
            <mxPoint x="700" y="450" as="targetPoint" />
            <Array as="points">
              <mxPoint x="820" y="300" />
              <mxPoint x="820" y="450" />
              <mxPoint x="700" y="450" />
            </Array>
          </mxGeometry>
        </mxCell>
        <mxCell id="cV0nnRCyaoGtx2Xki-Uy-28" style="edgeStyle=orthogonalEdgeStyle;rounded=0;orthogonalLoop=1;jettySize=auto;html=1;" edge="1" parent="1">
          <mxGeometry relative="1" as="geometry">
            <mxPoint x="700" y="460" as="sourcePoint" />
            <mxPoint x="699.94" y="620" as="targetPoint" />
            <Array as="points">
              <mxPoint x="820" y="460" />
              <mxPoint x="820" y="620" />
            </Array>
          </mxGeometry>
        </mxCell>
      </root>
    </mxGraphModel>
  </diagram>
</mxfile>
